<svg width="1467" height="204" viewBox="0 0 1467 204" xmlns="http://www.w3.org/2000/svg"><title>flat-logo</title><g fill="none" fill-rule="evenodd"><path d="M310 77.145h42.983c5.824 0 11.474.612 16.95 1.835 5.474 1.223 10.337 3.232 14.59 6.028 4.25 2.796 7.658 6.465 10.22 11.008 2.563 4.543 3.844 10.076 3.844 16.6 0 8.97-2.533 16.28-7.6 21.928-5.068 5.65-11.97 9.465-20.706 11.445l33.025 54.865h-26.56l-28.654-52.42h-16.074v52.42H310V77.145zm40.013 53.293c3.145 0 6.29-.233 9.435-.7 3.145-.465 5.97-1.338 8.474-2.62 2.505-1.28 4.573-3.116 6.203-5.504 1.63-2.388 2.447-5.446 2.447-9.173 0-3.377-.758-6.144-2.272-8.3-1.514-2.154-3.436-3.872-5.766-5.153-2.33-1.282-4.98-2.155-7.95-2.62-2.97-.467-5.854-.7-8.65-.7h-19.918v34.77h17.997zm127.9 20.094c0-2.68-.378-5.242-1.135-7.688-.757-2.446-1.95-4.6-3.582-6.465-1.63-1.865-3.698-3.35-6.203-4.457-2.504-1.106-5.445-1.66-8.823-1.66-6.29 0-11.62 1.893-15.988 5.68-4.368 3.785-6.785 8.648-7.25 14.59h42.982zm20.968 9.436v2.795c0 .932-.057 1.864-.173 2.796H434.93c.234 3.028 1.02 5.794 2.36 8.3 1.34 2.503 3.116 4.658 5.33 6.464 2.212 1.805 4.716 3.232 7.512 4.28 2.796 1.05 5.708 1.573 8.737 1.573 5.24 0 9.667-.96 13.278-2.883 3.61-1.922 6.58-4.572 8.91-7.95l13.98 11.183c-8.27 11.183-20.27 16.774-35.995 16.774-6.523 0-12.522-1.018-17.997-3.057-5.475-2.038-10.22-4.92-14.24-8.65-4.02-3.727-7.164-8.3-9.435-13.715-2.27-5.417-3.407-11.562-3.407-18.434 0-6.757 1.136-12.9 3.408-18.435 2.272-5.534 5.388-10.25 9.35-14.154 3.96-3.902 8.648-6.93 14.064-9.086 5.417-2.155 11.27-3.232 17.56-3.232 5.825 0 11.212.96 16.163 2.883 4.95 1.923 9.23 4.777 12.842 8.563 3.61 3.785 6.435 8.503 8.474 14.153 2.038 5.65 3.057 12.26 3.057 19.832zm72.34 30.228h-.525c-2.097 3.728-5.475 6.786-10.134 9.174-4.66 2.388-9.96 3.582-15.9 3.582-3.378 0-6.902-.437-10.57-1.31-3.67-.875-7.048-2.33-10.135-4.37-3.087-2.038-5.65-4.717-7.688-8.037-2.04-3.32-3.058-7.426-3.058-12.318 0-6.29 1.776-11.3 5.328-15.027 3.553-3.728 8.125-6.582 13.717-8.562 5.59-1.98 11.794-3.29 18.608-3.93 6.815-.642 13.483-.963 20.006-.963v-2.096c0-5.243-1.893-9.116-5.68-11.62-3.785-2.505-8.3-3.758-13.54-3.758-4.427 0-8.68.932-12.756 2.796-4.077 1.864-7.455 4.135-10.134 6.815l-10.833-12.756c4.776-4.426 10.28-7.746 16.512-9.96 6.23-2.213 12.55-3.32 18.957-3.32 7.455 0 13.6 1.05 18.433 3.146 4.835 2.097 8.65 4.834 11.445 8.212 2.796 3.378 4.747 7.164 5.854 11.358 1.105 4.193 1.66 8.387 1.66 12.58v51.022h-19.57v-10.66zm-.35-27.607h-4.718c-3.378 0-6.93.144-10.66.436-3.726.29-7.162.93-10.308 1.922-3.145.99-5.766 2.388-7.862 4.193-2.097 1.807-3.145 4.282-3.145 7.427 0 1.98.436 3.64 1.31 4.98.874 1.34 2.01 2.417 3.407 3.233 1.398.815 2.97 1.397 4.718 1.747 1.747.35 3.494.524 5.242.524 7.222 0 12.697-1.92 16.424-5.765 3.728-3.844 5.59-9.086 5.59-15.726v-2.97zm101.69-22.367c-1.63-2.33-4.076-4.28-7.337-5.853-3.262-1.573-6.582-2.36-9.96-2.36-3.844 0-7.222.787-10.134 2.36-2.913 1.572-5.33 3.64-7.252 6.203-1.922 2.562-3.35 5.445-4.28 8.65-.933 3.202-1.4 6.435-1.4 9.696 0 3.26.496 6.494 1.486 9.697.99 3.203 2.476 6.086 4.456 8.65 1.98 2.562 4.455 4.63 7.426 6.202 2.97 1.572 6.436 2.358 10.396 2.358 3.262 0 6.523-.64 9.785-1.922 3.262-1.28 5.883-3.145 7.863-5.59l13.104 13.278c-3.494 3.728-7.95 6.61-13.366 8.65-5.417 2.038-11.27 3.057-17.56 3.057-6.174 0-12.028-.99-17.56-2.97-5.534-1.98-10.368-4.892-14.503-8.736-4.135-3.844-7.397-8.503-9.785-13.978s-3.582-11.707-3.582-18.697c0-6.757 1.194-12.872 3.582-18.347 2.388-5.475 5.62-10.135 9.697-13.98 4.077-3.843 8.824-6.813 14.24-8.91 5.417-2.097 11.213-3.145 17.386-3.145 6.174 0 12.144 1.164 17.91 3.494s10.338 5.533 13.716 9.61l-14.33 12.58zm18.985-6.465v-16.774h14.677V92.696h20.618v24.288h20.968v16.774H726.84v38.965c0 3.728.67 6.815 2.01 9.26 1.34 2.447 4.34 3.67 8.998 3.67 1.398 0 2.912-.145 4.543-.437 1.632-.29 3.088-.728 4.37-1.31l.698 16.425c-1.864.7-4.077 1.253-6.64 1.66-2.562.408-5.008.612-7.338.612-5.59 0-10.134-.786-13.63-2.36-3.493-1.57-6.26-3.726-8.298-6.464-2.04-2.737-3.437-5.882-4.194-9.435-.757-3.553-1.136-7.368-1.136-11.445v-39.14h-14.677zm71.814-16.774h20.966v83.87H763.36v-83.87zm-2.972-28.48c0-3.38 1.252-6.32 3.757-8.825 2.504-2.506 5.678-3.758 9.522-3.758 3.845 0 7.077 1.194 9.698 3.582 2.62 2.388 3.93 5.388 3.93 9 0 3.61-1.31 6.61-3.93 8.997-2.62 2.39-5.853 3.583-9.698 3.583-3.844 0-7.018-1.252-9.522-3.756-2.505-2.505-3.757-5.446-3.757-8.824zm36.868 28.48h22.89l22.015 61.156h.35l22.19-61.156h22.19l-33.372 83.87h-22.365l-33.897-83.87zm157.163 33.548c0-2.68-.38-5.242-1.137-7.688-.757-2.446-1.95-4.6-3.582-6.465-1.63-1.865-3.697-3.35-6.202-4.457-2.504-1.106-5.445-1.66-8.823-1.66-6.29 0-11.62 1.893-15.988 5.68-4.368 3.785-6.785 8.648-7.25 14.59h42.982zm20.966 9.436v2.795c0 .932-.058 1.864-.174 2.796h-63.776c.233 3.028 1.02 5.794 2.36 8.3 1.338 2.503 3.114 4.658 5.328 6.464 2.213 1.805 4.717 3.232 7.513 4.28 2.796 1.05 5.708 1.573 8.736 1.573 5.242 0 9.67-.96 13.28-2.883 3.61-1.922 6.58-4.572 8.91-7.95l13.98 11.183c-8.27 11.183-20.27 16.774-35.995 16.774-6.523 0-12.522-1.018-17.997-3.057-5.474-2.038-10.22-4.92-14.24-8.65-4.018-3.727-7.163-8.3-9.435-13.715-2.27-5.417-3.407-11.562-3.407-18.434 0-6.757 1.136-12.9 3.407-18.435 2.272-5.534 5.388-10.25 9.348-14.154 3.96-3.902 8.65-6.93 14.066-9.086 5.416-2.155 11.27-3.232 17.56-3.232 5.824 0 11.21.96 16.162 2.883 4.95 1.923 9.23 4.777 12.842 8.563 3.61 3.785 6.436 8.503 8.475 14.153 2.037 5.65 3.056 12.26 3.056 19.832zM1101 180.27c-2.066 3.1-4.563 6.027-7.49 8.782-2.928 2.755-6.314 5.166-10.16 7.232-3.845 2.067-8.092 3.703-12.742 4.908-4.65 1.205-9.728 1.808-15.238 1.808-9.184 0-17.68-1.607-25.485-4.82-7.806-3.216-14.52-7.664-20.146-13.346-5.626-5.683-10.017-12.427-13.173-20.233-3.157-7.805-4.736-16.357-4.736-25.656 0-9.298 1.608-17.85 4.823-25.657 3.214-7.806 7.662-14.55 13.344-20.232 5.683-5.683 12.398-10.13 20.147-13.345 7.748-3.215 16.157-4.822 25.226-4.822 4.477 0 8.867.46 13.172 1.378 4.305.918 8.35 2.21 12.14 3.874 3.788 1.665 7.232 3.674 10.33 6.027 3.1 2.353 5.683 5.022 7.75 8.007l-10.332 7.576c-1.263-1.95-2.956-3.903-5.08-5.854-2.123-1.952-4.62-3.674-7.49-5.166-2.87-1.492-5.998-2.698-9.384-3.616-3.387-.918-7.03-1.378-10.934-1.378-7.92 0-15.01 1.435-21.266 4.305-6.256 2.87-11.565 6.745-15.927 11.624-4.364 4.88-7.693 10.533-9.988 16.96-2.296 6.43-3.444 13.203-3.444 20.32 0 7.117 1.176 13.89 3.53 20.32 2.353 6.428 5.71 12.08 10.073 16.96 4.363 4.88 9.672 8.753 15.928 11.623 6.257 2.87 13.288 4.305 21.094 4.305 7.002 0 13.66-1.435 19.974-4.305 6.313-2.87 11.594-7.462 15.84-13.775l9.644 6.2zm98.686-21.302c0 6.174-1.077 11.88-3.232 17.123-2.155 5.243-5.155 9.786-9 13.63-3.843 3.845-8.444 6.844-13.802 9-5.36 2.154-11.24 3.232-17.648 3.232-6.29 0-12.114-1.078-17.473-3.233-5.357-2.156-9.958-5.155-13.802-9-3.844-3.844-6.844-8.387-9-13.63-2.154-5.24-3.23-10.948-3.23-17.122 0-6.174 1.076-11.882 3.23-17.124 2.156-5.242 5.156-9.785 9-13.63 3.844-3.843 8.445-6.843 13.803-8.998 5.36-2.155 11.184-3.232 17.474-3.232 6.407 0 12.29 1.077 17.648 3.232 5.358 2.155 9.96 5.155 13.803 9 3.844 3.843 6.844 8.386 9 13.628 2.154 5.242 3.23 10.95 3.23 17.124zm-12.58 0c0-4.543-.728-8.824-2.184-12.843-1.457-4.02-3.524-7.513-6.203-10.484-2.68-2.97-5.942-5.328-9.786-7.075-3.844-1.748-8.154-2.62-12.93-2.62s-9.057.872-12.843 2.62c-3.784 1.747-7.017 4.106-9.696 7.076-2.68 2.972-4.747 6.466-6.203 10.485-1.455 4.02-2.183 8.3-2.183 12.843 0 4.543.728 8.824 2.184 12.842 1.457 4.02 3.525 7.514 6.204 10.484 2.68 2.97 5.912 5.3 9.697 6.99 3.787 1.69 8.068 2.533 12.844 2.533s9.086-.844 12.93-2.533c3.844-1.69 7.106-4.02 9.785-6.99 2.678-2.97 4.745-6.465 6.202-10.484 1.456-4.018 2.184-8.3 2.184-12.842zm90.807-22.19c-1.98-3.146-4.863-5.738-8.65-7.777-3.785-2.037-7.89-3.056-12.317-3.056-4.776 0-9.086.844-12.93 2.533-3.844 1.69-7.135 4.02-9.872 6.99-2.738 2.97-4.835 6.464-6.29 10.483-1.457 4.02-2.185 8.358-2.185 13.018s.727 8.97 2.183 12.93c1.456 3.96 3.524 7.426 6.203 10.396 2.68 2.97 5.94 5.3 9.785 6.99 3.845 1.69 8.155 2.533 12.93 2.533 5.243 0 9.67-.99 13.28-2.97 3.61-1.98 6.582-4.543 8.91-7.688l8.913 6.638c-3.495 4.31-7.776 7.747-12.843 10.31-5.067 2.562-11.153 3.844-18.26 3.844-6.64 0-12.638-1.078-17.996-3.233-5.358-2.156-9.93-5.155-13.716-9-3.786-3.844-6.727-8.387-8.824-13.63-2.097-5.24-3.145-10.948-3.145-17.122 0-6.174 1.047-11.882 3.144-17.124 2.097-5.242 5.038-9.785 8.824-13.63 3.786-3.843 8.358-6.843 13.716-8.998 5.358-2.155 11.357-3.232 17.997-3.232 5.476 0 11.038 1.194 16.687 3.582 5.65 2.388 10.222 5.912 13.717 10.57l-9.26 6.64zm106.646 22.19c0 6.174-1.078 11.88-3.233 17.123-2.155 5.243-5.155 9.786-9 13.63-3.843 3.845-8.444 6.844-13.803 9-5.358 2.154-11.24 3.232-17.647 3.232-6.29 0-12.115-1.078-17.473-3.233-5.358-2.156-9.96-5.155-13.803-9-3.843-3.844-6.843-8.387-8.998-13.63-2.155-5.24-3.232-10.948-3.232-17.122 0-6.174 1.077-11.882 3.232-17.124 2.155-5.242 5.155-9.785 9-13.63 3.843-3.843 8.444-6.843 13.802-8.998 5.358-2.155 11.183-3.232 17.473-3.232 6.407 0 12.29 1.077 17.648 3.232 5.358 2.155 9.96 5.155 13.803 9 3.844 3.843 6.844 8.386 9 13.628 2.154 5.242 3.23 10.95 3.23 17.124zm-12.58 0c0-4.543-.73-8.824-2.186-12.843-1.456-4.02-3.523-7.513-6.202-10.484-2.68-2.97-5.94-5.328-9.785-7.075-3.844-1.748-8.154-2.62-12.93-2.62s-9.057.872-12.843 2.62c-3.785 1.747-7.018 4.106-9.697 7.076-2.68 2.972-4.747 6.466-6.203 10.485-1.456 4.02-2.184 8.3-2.184 12.843 0 4.543.728 8.824 2.184 12.842 1.456 4.02 3.524 7.514 6.203 10.484 2.68 2.97 5.912 5.3 9.697 6.99 3.786 1.69 8.067 2.533 12.843 2.533s9.086-.844 12.93-2.533c3.844-1.69 7.105-4.02 9.785-6.99 2.68-2.97 4.746-6.465 6.202-10.484 1.457-4.018 2.185-8.3 2.185-12.842zm82.44-11.882c0-7.106-1.864-12.406-5.592-15.9-3.727-3.495-9.144-5.242-16.25-5.242-4.892 0-9.435.873-13.628 2.62-4.194 1.748-7.747 4.078-10.66 6.99l-6.638-7.863c3.378-3.377 7.833-6.173 13.366-8.386 5.533-2.214 11.794-3.32 18.784-3.32 4.426 0 8.56.61 12.405 1.835 3.844 1.222 7.222 3.056 10.135 5.503 2.912 2.446 5.183 5.533 6.814 9.26 1.63 3.728 2.446 8.096 2.446 13.105v35.82c0 3.145.117 6.407.35 9.785.233 3.378.582 6.232 1.048 8.562h-10.658c-.35-1.98-.64-4.135-.874-6.465-.233-2.33-.35-4.6-.35-6.815h-.35c-3.727 5.475-7.95 9.407-12.667 11.795-4.716 2.388-10.395 3.582-17.035 3.582-3.145 0-6.377-.437-9.697-1.31-3.32-.875-6.35-2.3-9.086-4.282-2.738-1.98-5.01-4.543-6.815-7.688-1.805-3.145-2.708-6.99-2.708-11.532 0-6.29 1.6-11.27 4.804-14.94s7.484-6.407 12.843-8.212c5.358-1.806 11.503-2.97 18.434-3.495 6.932-.524 14.124-.786 21.58-.786v-2.62zm-3.495 11.882c-4.892 0-9.814.204-14.765.61-4.95.41-9.435 1.224-13.454 2.448-4.018 1.223-7.31 3-9.872 5.33-2.563 2.33-3.844 5.415-3.844 9.26 0 2.912.553 5.358 1.66 7.338 1.107 1.98 2.592 3.582 4.456 4.805 1.863 1.223 3.93 2.096 6.203 2.62 2.27.525 4.57.787 6.9.787 4.194 0 7.92-.728 11.183-2.184 3.262-1.457 6-3.437 8.212-5.94 2.213-2.506 3.902-5.39 5.067-8.65 1.165-3.262 1.748-6.7 1.748-10.31v-6.115h-3.495z" fill="#4F6B97"/><path d="M113.07 18.61C107.374 8.472 112.19.254 123.806.254h116.85c16.745 0 23.664 11.842 15.47 26.425l-4.518 8.042-64.743 115.233L113.07 18.61z" id="Path" fill="#40AD71"/><path d="M96.56 12.563C98.957 9.237 105.332.125 124.5.125c-12.3 2.442-12.715 12.91-8.77 19.93l87.644 155.996c8.204 14.602 1.277 26.438-15.466 26.438H19.886c-16.745 0-23.68-11.843-15.49-26.445 0 0 89.765-160.153 92.163-163.48z" fill="#88CD79"/></g></svg>