<svg width="1458" height="200" viewBox="0 0 1458 200" xmlns="http://www.w3.org/2000/svg" xmlns:xlink="http://www.w3.org/1999/xlink"><title>mono-dark-bg</title><defs><path id="a" d="M181.825 147c-23.786-42.56-48.08-84.838-71.715-127.484-.24-.443-.465-.893-.668-1.354-.564-1.275-.98-2.618-1.218-3.992-.225-1.293-.29-2.618-.152-3.925.1-.95.31-1.89.64-2.79.247-.672.562-1.32.94-1.928.29-.464.615-.904.972-1.316 1.158-1.335 2.64-2.35 4.243-3.076 1.104-.5 2.262-.862 3.44-1.134h115.915c16.622 0 23.492 11.77 15.358 26.265l-4.486 7.993L181.824 147z"/></defs><g fill="#FFF" fill-rule="evenodd"><path d="M301 72.995h42.983c5.824 0 11.474.61 16.95 1.834 5.474 1.222 10.337 3.232 14.59 6.028 4.25 2.795 7.658 6.465 10.22 11.008 2.563 4.543 3.844 10.076 3.844 16.6 0 8.97-2.533 16.278-7.6 21.928-5.068 5.65-11.97 9.464-20.706 11.445l33.025 54.864h-26.56l-28.654-52.42h-16.074v52.42H301V72.994zm40.013 53.293c3.145 0 6.29-.233 9.435-.7 3.145-.465 5.97-1.34 8.474-2.62 2.505-1.282 4.573-3.116 6.203-5.504 1.63-2.388 2.447-5.446 2.447-9.174 0-3.378-.758-6.144-2.272-8.3-1.514-2.154-3.436-3.873-5.766-5.154-2.33-1.28-4.98-2.155-7.95-2.62-2.97-.467-5.854-.7-8.65-.7h-19.918v34.772h17.997zm127.9 20.094c0-2.68-.378-5.242-1.135-7.688-.757-2.447-1.95-4.602-3.582-6.466-1.63-1.863-3.698-3.35-6.203-4.455-2.504-1.107-5.445-1.66-8.823-1.66-6.29 0-11.62 1.893-15.988 5.68-4.368 3.785-6.785 8.648-7.25 14.59h42.982zm20.968 9.435v2.796c0 .932-.057 1.864-.173 2.796H425.93c.234 3.027 1.02 5.794 2.36 8.298 1.34 2.505 3.116 4.66 5.33 6.465 2.212 1.806 4.716 3.233 7.512 4.28 2.796 1.05 5.708 1.574 8.737 1.574 5.24 0 9.667-.96 13.278-2.883 3.61-1.922 6.58-4.572 8.91-7.95l13.98 11.182c-8.27 11.183-20.27 16.775-35.995 16.775-6.523 0-12.522-1.02-17.997-3.057-5.475-2.04-10.22-4.922-14.24-8.65-4.02-3.727-7.164-8.3-9.435-13.716-2.27-5.417-3.407-11.56-3.407-18.434 0-6.756 1.136-12.9 3.408-18.434 2.272-5.534 5.388-10.252 9.35-14.154 3.96-3.903 8.648-6.93 14.064-9.086 5.417-2.155 11.27-3.233 17.56-3.233 5.825 0 11.212.96 16.163 2.883 4.95 1.922 9.23 4.776 12.842 8.562 3.61 3.786 6.435 8.504 8.474 14.153 2.038 5.65 3.057 12.26 3.057 19.832zm72.34 30.23h-.525c-2.097 3.726-5.475 6.784-10.134 9.172-4.66 2.387-9.96 3.58-15.9 3.58-3.378 0-6.902-.436-10.57-1.31-3.67-.873-7.048-2.33-10.135-4.368-3.087-2.038-5.65-4.717-7.688-8.037-2.04-3.32-3.058-7.426-3.058-12.32 0-6.29 1.776-11.298 5.328-15.026 3.553-3.728 8.125-6.582 13.717-8.563 5.59-1.98 11.794-3.29 18.608-3.93 6.815-.642 13.483-.962 20.006-.962v-2.097c0-5.242-1.893-9.115-5.68-11.62-3.785-2.504-8.3-3.756-13.54-3.756-4.427 0-8.68.932-12.756 2.796-4.077 1.863-7.455 4.135-10.134 6.814l-10.833-12.755c4.776-4.427 10.28-7.747 16.512-9.96 6.23-2.213 12.55-3.32 18.957-3.32 7.455 0 13.6 1.048 18.433 3.145 4.835 2.097 8.65 4.834 11.445 8.213 2.796 3.378 4.747 7.164 5.854 11.357 1.105 4.194 1.66 8.387 1.66 12.58v51.022h-19.57v-10.658zm-.35-27.61h-4.718c-3.378 0-6.93.147-10.66.438-3.726.29-7.162.932-10.308 1.922-3.145.99-5.766 2.388-7.862 4.194-2.097 1.806-3.145 4.28-3.145 7.427 0 1.98.436 3.64 1.31 4.98.874 1.34 2.01 2.417 3.407 3.232 1.398.814 2.97 1.397 4.718 1.746 1.747.35 3.494.525 5.242.525 7.222 0 12.697-1.92 16.424-5.766 3.728-3.844 5.59-9.086 5.59-15.725v-2.972zm97.69-22.364c-1.63-2.33-4.076-4.28-7.337-5.854-3.262-1.574-6.582-2.36-9.96-2.36-3.844 0-7.222.786-10.134 2.36-2.913 1.572-5.33 3.64-7.252 6.202-1.922 2.563-3.35 5.446-4.28 8.65-.933 3.203-1.4 6.435-1.4 9.697 0 3.26.496 6.493 1.486 9.696.99 3.204 2.476 6.087 4.456 8.65 1.98 2.562 4.455 4.63 7.426 6.203 2.97 1.57 6.436 2.357 10.396 2.357 3.262 0 6.523-.64 9.785-1.922 3.262-1.28 5.883-3.145 7.863-5.59l13.104 13.28c-3.494 3.726-7.95 6.61-13.366 8.648-5.417 2.038-11.27 3.058-17.56 3.058-6.174 0-12.028-.99-17.56-2.97-5.534-1.98-10.368-4.892-14.503-8.736-4.135-3.845-7.397-8.504-9.785-13.98-2.388-5.474-3.582-11.706-3.582-18.695 0-6.757 1.194-12.873 3.582-18.348s5.62-10.134 9.697-13.978c4.077-3.845 8.824-6.815 14.24-8.912 5.417-2.097 11.213-3.145 17.386-3.145 6.174 0 12.144 1.165 17.91 3.495s10.338 5.533 13.716 9.61l-14.33 12.58zm22.985-6.465v-16.775h14.677V88.546h20.618v24.287h20.968v16.775H717.84v38.965c0 3.727.67 6.814 2.01 9.26 1.34 2.447 4.34 3.67 8.998 3.67 1.398 0 2.912-.146 4.543-.437 1.632-.29 3.088-.728 4.37-1.31l.698 16.424c-1.864.7-4.077 1.252-6.64 1.66-2.562.408-5.008.612-7.338.612-5.59 0-10.134-.787-13.63-2.36-3.493-1.572-6.26-3.727-8.298-6.464-2.04-2.738-3.437-5.883-4.194-9.436-.757-3.553-1.136-7.368-1.136-11.445v-39.14h-14.677zm71.814-16.775h20.966v83.87H754.36v-83.87zm-2.972-28.48c0-3.38 1.252-6.32 3.757-8.825 2.504-2.504 5.678-3.756 9.522-3.756 3.845 0 7.077 1.193 9.698 3.58 2.62 2.39 3.93 5.39 3.93 9 0 3.61-1.31 6.61-3.93 9-2.62 2.387-5.853 3.58-9.698 3.58-3.844 0-7.018-1.25-9.522-3.756-2.505-2.504-3.757-5.446-3.757-8.824zm36.868 28.48h22.89l22.015 61.156h.35l22.19-61.157h22.19l-33.372 83.87h-22.365l-33.897-83.87zm157.163 33.55c0-2.68-.38-5.243-1.137-7.69-.757-2.446-1.95-4.6-3.582-6.465-1.63-1.863-3.697-3.35-6.202-4.455-2.504-1.107-5.445-1.66-8.823-1.66-6.29 0-11.62 1.893-15.988 5.68-4.368 3.785-6.785 8.648-7.25 14.59h42.982zm20.966 9.434v2.796c0 .932-.058 1.864-.174 2.796h-63.776c.233 3.027 1.02 5.794 2.36 8.298 1.338 2.505 3.114 4.66 5.328 6.465 2.213 1.806 4.717 3.233 7.513 4.28 2.796 1.05 5.708 1.574 8.736 1.574 5.242 0 9.67-.96 13.28-2.883 3.61-1.922 6.58-4.572 8.91-7.95l13.98 11.182c-8.27 11.183-20.27 16.775-35.995 16.775-6.523 0-12.522-1.02-17.997-3.057-5.474-2.04-10.22-4.922-14.24-8.65-4.018-3.727-7.163-8.3-9.435-13.716-2.27-5.417-3.407-11.56-3.407-18.434 0-6.756 1.136-12.9 3.407-18.434 2.272-5.534 5.388-10.252 9.348-14.154 3.96-3.903 8.65-6.93 14.066-9.086 5.416-2.155 11.27-3.233 17.56-3.233 5.824 0 11.21.96 16.162 2.883 4.95 1.922 9.23 4.776 12.842 8.562 3.61 3.786 6.436 8.504 8.475 14.153 2.037 5.65 3.056 12.26 3.056 19.832zM1092 176.12c-2.066 3.1-4.563 6.027-7.49 8.782-2.928 2.755-6.314 5.166-10.16 7.232-3.845 2.066-8.092 3.702-12.742 4.907-4.65 1.207-9.728 1.81-15.238 1.81-9.184 0-17.68-1.608-25.485-4.822-7.806-3.214-14.52-7.663-20.146-13.345-5.626-5.682-10.017-12.426-13.173-20.233-3.157-7.806-4.736-16.358-4.736-25.656 0-9.3 1.608-17.85 4.823-25.657 3.214-7.806 7.662-14.55 13.344-20.233 5.683-5.682 12.398-10.13 20.147-13.345 7.748-3.215 16.157-4.822 25.226-4.822 4.477 0 8.867.46 13.172 1.377 4.305.92 8.35 2.21 12.14 3.875 3.788 1.664 7.232 3.673 10.33 6.026 3.1 2.354 5.683 5.023 7.75 8.007L1079.43 97.6c-1.263-1.952-2.956-3.903-5.08-5.855-2.123-1.95-4.62-3.673-7.49-5.165-2.87-1.493-5.998-2.698-9.384-3.617-3.387-.918-7.03-1.377-10.934-1.377-7.92 0-15.01 1.435-21.266 4.305-6.256 2.87-11.565 6.745-15.927 11.624-4.364 4.88-7.693 10.532-9.988 16.96-2.296 6.43-3.444 13.202-3.444 20.32 0 7.117 1.176 13.89 3.53 20.318 2.353 6.43 5.71 12.083 10.073 16.96 4.363 4.88 9.672 8.755 15.928 11.624 6.257 2.87 13.288 4.305 21.094 4.305 7.002 0 13.66-1.434 19.974-4.304 6.313-2.87 11.594-7.46 15.84-13.775l9.644 6.2zm98.686-21.303c0 6.174-1.077 11.882-3.232 17.124-2.155 5.243-5.155 9.786-9 13.63-3.843 3.844-8.444 6.844-13.802 9-5.36 2.154-11.24 3.23-17.648 3.23-6.29 0-12.114-1.076-17.473-3.23-5.357-2.156-9.958-5.156-13.802-9-3.844-3.844-6.844-8.387-9-13.63-2.154-5.24-3.23-10.95-3.23-17.123 0-6.174 1.076-11.88 3.23-17.123 2.156-5.242 5.156-9.785 9-13.63 3.844-3.844 8.445-6.843 13.803-8.998 5.36-2.155 11.184-3.233 17.474-3.233 6.407 0 12.29 1.078 17.648 3.233 5.358 2.155 9.96 5.154 13.803 9 3.844 3.843 6.844 8.386 9 13.628 2.154 5.242 3.23 10.95 3.23 17.123zm-12.58 0c0-4.543-.728-8.824-2.184-12.843-1.457-4.018-3.524-7.513-6.203-10.483-2.68-2.97-5.942-5.33-9.786-7.076-3.844-1.747-8.154-2.62-12.93-2.62s-9.057.873-12.843 2.62c-3.784 1.747-7.017 4.106-9.696 7.077-2.68 2.97-4.747 6.466-6.203 10.484-1.455 4.02-2.183 8.3-2.183 12.843 0 4.543.728 8.824 2.184 12.843 1.457 4.02 3.525 7.513 6.204 10.484 2.68 2.97 5.912 5.3 9.697 6.99 3.787 1.688 8.068 2.533 12.844 2.533s9.086-.845 12.93-2.534c3.844-1.69 7.106-4.02 9.785-6.99 2.678-2.97 4.745-6.464 6.202-10.483 1.456-4.02 2.184-8.3 2.184-12.843zm90.807-22.19c-1.98-3.146-4.863-5.738-8.65-7.776-3.785-2.038-7.89-3.057-12.317-3.057-4.776 0-9.086.845-12.93 2.534-3.844 1.69-7.135 4.018-9.872 6.99-2.738 2.97-4.835 6.464-6.29 10.483-1.457 4.02-2.185 8.358-2.185 13.017 0 4.66.727 8.97 2.183 12.93 1.456 3.96 3.524 7.426 6.203 10.397 2.68 2.97 5.94 5.3 9.785 6.99 3.845 1.688 8.155 2.533 12.93 2.533 5.243 0 9.67-.99 13.28-2.97 3.61-1.98 6.582-4.544 8.91-7.69l8.913 6.64c-3.495 4.31-7.776 7.747-12.843 10.31-5.067 2.563-11.153 3.844-18.26 3.844-6.64 0-12.638-1.076-17.996-3.23-5.358-2.156-9.93-5.156-13.716-9-3.786-3.844-6.727-8.387-8.824-13.63-2.097-5.24-3.145-10.95-3.145-17.123 0-6.174 1.047-11.88 3.144-17.123 2.097-5.242 5.038-9.785 8.824-13.63 3.786-3.844 8.358-6.843 13.716-8.998 5.358-2.155 11.357-3.233 17.997-3.233 5.476 0 11.038 1.194 16.687 3.582 5.65 2.388 10.222 5.912 13.717 10.572l-9.26 6.64zm106.646 22.19c0 6.174-1.078 11.882-3.233 17.124-2.155 5.243-5.155 9.786-9 13.63-3.843 3.844-8.444 6.844-13.803 9-5.358 2.154-11.24 3.23-17.647 3.23-6.29 0-12.115-1.076-17.473-3.23-5.358-2.156-9.96-5.156-13.803-9-3.843-3.844-6.843-8.387-8.998-13.63-2.155-5.24-3.232-10.95-3.232-17.123 0-6.174 1.077-11.88 3.232-17.123 2.155-5.242 5.155-9.785 9-13.63 3.843-3.844 8.444-6.843 13.802-8.998 5.358-2.155 11.183-3.233 17.473-3.233 6.407 0 12.29 1.078 17.648 3.233 5.358 2.155 9.96 5.154 13.803 9 3.844 3.843 6.844 8.386 9 13.628 2.154 5.242 3.23 10.95 3.23 17.123zm-12.58 0c0-4.543-.73-8.824-2.186-12.843-1.456-4.018-3.523-7.513-6.202-10.483-2.68-2.97-5.94-5.33-9.785-7.076-3.844-1.747-8.154-2.62-12.93-2.62s-9.057.873-12.843 2.62c-3.785 1.747-7.018 4.106-9.697 7.077-2.68 2.97-4.747 6.466-6.203 10.484-1.456 4.02-2.184 8.3-2.184 12.843 0 4.543.728 8.824 2.184 12.843 1.456 4.02 3.524 7.513 6.203 10.484 2.68 2.97 5.912 5.3 9.697 6.99 3.786 1.688 8.067 2.533 12.843 2.533s9.086-.845 12.93-2.534c3.844-1.69 7.105-4.02 9.785-6.99 2.68-2.97 4.746-6.464 6.202-10.483 1.457-4.02 2.185-8.3 2.185-12.843zm82.44-11.882c0-7.105-1.864-12.405-5.592-15.9-3.727-3.495-9.144-5.242-16.25-5.242-4.892 0-9.435.874-13.628 2.62-4.194 1.748-7.747 4.078-10.66 6.99l-6.638-7.863c3.378-3.378 7.833-6.174 13.366-8.387 5.533-2.213 11.794-3.32 18.784-3.32 4.426 0 8.56.612 12.405 1.835 3.844 1.223 7.222 3.058 10.135 5.504 2.912 2.446 5.183 5.533 6.814 9.26 1.63 3.728 2.446 8.097 2.446 13.106v35.82c0 3.145.117 6.406.35 9.784.233 3.38.582 6.233 1.048 8.562h-10.658c-.35-1.98-.64-4.135-.874-6.465-.233-2.33-.35-4.602-.35-6.815h-.35c-3.727 5.475-7.95 9.406-12.667 11.794-4.716 2.387-10.395 3.58-17.035 3.58-3.145 0-6.377-.436-9.697-1.31-3.32-.873-6.35-2.3-9.086-4.28-2.738-1.98-5.01-4.543-6.815-7.688-1.805-3.146-2.708-6.99-2.708-11.533 0-6.29 1.6-11.27 4.804-14.94s7.484-6.407 12.843-8.213c5.358-1.805 11.503-2.97 18.434-3.494 6.932-.524 14.124-.787 21.58-.787v-2.62zm-3.495 11.882c-4.892 0-9.814.204-14.765.612-4.95.406-9.435 1.222-13.454 2.445-4.018 1.223-7.31 3-9.872 5.33-2.563 2.33-3.844 5.416-3.844 9.26 0 2.912.553 5.358 1.66 7.34 1.107 1.98 2.592 3.58 4.456 4.804 1.863 1.222 3.93 2.096 6.203 2.62 2.27.524 4.57.786 6.9.786 4.194 0 7.92-.728 11.183-2.184 3.262-1.456 6-3.436 8.212-5.94 2.213-2.505 3.902-5.388 5.067-8.65 1.165-3.262 1.748-6.698 1.748-10.31v-6.115h-3.495z"/><path d="M14.794 197.797c55.59 0 111.184.458 166.773-.002.225-.003.45-.008.674-.015 2.087-.077 4.178-.36 6.167-1.014 1.253-.413 2.465-.975 3.55-1.734.726-.51 1.393-1.107 1.96-1.793.377-.46.71-.954.987-1.478.196-.37.365-.753.506-1.146.795-2.202.71-4.625.197-6.88-.08-.347-.17-.693-.268-1.035-.118-.406-.25-.81-.39-1.21-.204-.57-.43-1.13-.675-1.682-.31-.7-.653-1.383-1.018-2.055-28.6-52.07-58.338-103.503-87.096-155.484-.365-.68-.7-1.372-.997-2.084-.21-.502-.4-1.01-.57-1.528-.996-3.023-1.333-6.304-.71-9.44.147-.737.348-1.46.597-2.167l.018-.05c-1.647.643-3.233 1.46-4.696 2.456-.993.677-1.928 1.437-2.79 2.275-.623.607-1.21 1.253-1.754 1.932-.444.554-.863 1.126-1.277 1.703l-.166.27c-.703 1.168-1.382 2.352-2.06 3.535-1.08 1.877-2.152 3.758-3.222 5.64-2.682 4.72-5.35 9.446-8.018 14.173-8.17 14.48-16.307 28.98-24.44 43.48-10.838 19.32-21.662 38.645-32.478 57.975-4.16 7.433-8.317 14.865-12.473 22.298l-4.396 7.862c-1.332 2.38-2.68 4.753-3.992 7.145-.107.198-.212.396-.316.596-.955 1.86-1.732 3.83-2.135 5.89-.255 1.298-.36 2.634-.23 3.954.088.887.282 1.763.602 2.595.213.554.482 1.088.802 1.588.224.353.475.69.748 1.006 1.525 1.774 3.674 2.888 5.887 3.544.34.1.685.192 1.03.274.412.096.827.18 1.244.25.593.103 1.19.18 1.792.236.76.07 1.52.106 2.284.117l.348.002z" id="Path"/><use xlink:href="#a"/></g></svg>